<svg width="121" height="22" viewBox="0 0 121 22" fill="none" xmlns="http://www.w3.org/2000/svg">
<path d="M2.583 6.40343C3.51416 6.40343 4.22847 6.58201 4.72593 6.93916C5.22978 7.28994 5.4817 7.81611 5.4817 8.51766C5.4817 8.90033 5.41154 9.22879 5.27123 9.50303C5.1373 9.7709 4.93959 9.99093 4.6781 10.1631C4.42299 10.329 4.11048 10.4501 3.74057 10.5267C3.37066 10.6032 2.95291 10.6415 2.48733 10.6415H1.7507V13.1001H0.822733V6.56606C1.08422 6.50229 1.37441 6.46083 1.6933 6.4417C2.01857 6.41619 2.31513 6.40343 2.583 6.40343ZM2.65953 7.2166C2.26411 7.2166 1.96117 7.22616 1.7507 7.2453V9.84743H2.44907C2.76796 9.84743 3.05496 9.8283 3.31007 9.79003C3.56518 9.74539 3.77883 9.67523 3.95103 9.57956C4.12961 9.47752 4.26673 9.3404 4.3624 9.1682C4.45807 8.996 4.5059 8.77596 4.5059 8.5081C4.5059 8.25299 4.45488 8.04252 4.35283 7.8767C4.25717 7.71088 4.12323 7.58013 3.95103 7.48446C3.78521 7.38242 3.59069 7.31226 3.36747 7.274C3.14424 7.23573 2.90827 7.2166 2.65953 7.2166ZM10.7712 10.6128C10.7712 11.0082 10.7138 11.3653 10.599 11.6842C10.4842 12.0031 10.3216 12.2774 10.1111 12.507C9.90706 12.7366 9.66151 12.9151 9.37451 13.0427C9.08751 13.1639 8.775 13.2245 8.43698 13.2245C8.09896 13.2245 7.78644 13.1639 7.49944 13.0427C7.21244 12.9151 6.96371 12.7366 6.75324 12.507C6.54916 12.2774 6.38971 12.0031 6.27491 11.6842C6.16011 11.3653 6.10271 11.0082 6.10271 10.6128C6.10271 10.2237 6.16011 9.86975 6.27491 9.55086C6.38971 9.2256 6.54916 8.94816 6.75324 8.71856C6.96371 8.48896 7.21244 8.31358 7.49944 8.1924C7.78644 8.06484 8.09896 8.00106 8.43698 8.00106C8.775 8.00106 9.08751 8.06484 9.37451 8.1924C9.66151 8.31358 9.90706 8.48896 10.1111 8.71856C10.3216 8.94816 10.4842 9.2256 10.599 9.55086C10.7138 9.86975 10.7712 10.2237 10.7712 10.6128ZM9.84328 10.6128C9.84328 10.0515 9.71572 9.60826 9.46061 9.283C9.21188 8.95135 8.87067 8.78553 8.43698 8.78553C8.00329 8.78553 7.65889 8.95135 7.40378 9.283C7.15504 9.60826 7.03068 10.0515 7.03068 10.6128C7.03068 11.174 7.15504 11.6205 7.40378 11.9521C7.65889 12.2774 8.00329 12.44 8.43698 12.44C8.87067 12.44 9.21188 12.2774 9.46061 11.9521C9.71572 11.6205 9.84328 11.174 9.84328 10.6128ZM15.9674 13.1001C15.7888 12.6409 15.5975 12.1179 15.3934 11.5312C15.1957 10.938 15.0139 10.3226 14.8481 9.6848C14.6822 10.3226 14.5005 10.938 14.3028 11.5312C14.1051 12.1179 13.9169 12.6409 13.7383 13.1001H12.9634C12.6701 12.4432 12.3831 11.6938 12.1024 10.8519C11.8218 10.0101 11.5571 9.10123 11.3084 8.12543H12.2651C12.3288 8.42519 12.4054 8.75045 12.4947 9.10123C12.584 9.45201 12.6764 9.80279 12.7721 10.1536C12.8741 10.5043 12.9794 10.8424 13.0878 11.1676C13.1962 11.4929 13.2983 11.7767 13.3939 12.0191C13.5024 11.7193 13.6076 11.4036 13.7096 11.072C13.8181 10.7339 13.9201 10.3959 14.0158 10.0579C14.1114 9.7135 14.2007 9.37866 14.2836 9.0534C14.3729 8.72175 14.4495 8.41243 14.5132 8.12543H15.2499C15.3073 8.41243 15.3774 8.72175 15.4603 9.0534C15.5432 9.37866 15.6325 9.7135 15.7282 10.0579C15.8239 10.3959 15.9227 10.7339 16.0248 11.072C16.1332 11.4036 16.2416 11.7193 16.35 12.0191C16.4457 11.7767 16.5446 11.4929 16.6466 11.1676C16.755 10.8424 16.8603 10.5043 16.9623 10.1536C17.0643 9.80279 17.16 9.45201 17.2493 9.10123C17.3386 8.75045 17.4151 8.42519 17.4789 8.12543H18.3973C18.1486 9.10123 17.8839 10.0101 17.6033 10.8519C17.3226 11.6938 17.0356 12.4432 16.7423 13.1001H15.9674ZM19.0607 10.6223C19.0607 10.1823 19.1245 9.7996 19.252 9.47433C19.3796 9.14269 19.5486 8.86844 19.7591 8.6516C19.9695 8.43475 20.2119 8.27212 20.4861 8.1637C20.7604 8.05528 21.041 8.00106 21.328 8.00106C21.9977 8.00106 22.5111 8.21153 22.8682 8.63246C23.2254 9.04702 23.404 9.68161 23.404 10.5362C23.404 10.5745 23.404 10.6255 23.404 10.6893C23.404 10.7467 23.4008 10.8009 23.3944 10.8519H19.9887C20.0269 11.3685 20.1768 11.7608 20.4383 12.0286C20.6998 12.2965 21.108 12.4304 21.6628 12.4304C21.9753 12.4304 22.2368 12.4049 22.4473 12.3539C22.6641 12.2965 22.8268 12.2423 22.9352 12.1913L23.0596 12.9375C22.9511 12.9949 22.7598 13.0555 22.4856 13.1192C22.2177 13.183 21.9116 13.2149 21.5672 13.2149C21.1335 13.2149 20.7572 13.1511 20.4383 13.0236C20.1258 12.8896 19.8675 12.7079 19.6634 12.4783C19.4593 12.2487 19.3062 11.9776 19.2042 11.6651C19.1085 11.3462 19.0607 10.9986 19.0607 10.6223ZM22.476 10.1344C22.4824 9.73263 22.3803 9.40418 22.1699 9.14906C21.9658 8.88758 21.682 8.75683 21.3184 8.75683C21.1143 8.75683 20.9326 8.79829 20.7731 8.8812C20.6201 8.95773 20.4893 9.05978 20.3809 9.18733C20.2725 9.31489 20.1864 9.46158 20.1226 9.6274C20.0652 9.79322 20.0269 9.96223 20.0078 10.1344H22.476ZM26.5188 8.0202C26.5953 8.0202 26.6814 8.02658 26.7771 8.03933C26.8791 8.04571 26.978 8.05846 27.0737 8.0776C27.1693 8.09035 27.2554 8.1063 27.332 8.12543C27.4149 8.13819 27.4755 8.15094 27.5137 8.1637L27.3607 8.9386C27.2905 8.91309 27.1725 8.88439 27.0067 8.8525C26.8473 8.81423 26.64 8.7951 26.3849 8.7951C26.219 8.7951 26.0532 8.81423 25.8874 8.8525C25.728 8.88439 25.6227 8.90671 25.5717 8.91946V13.1001H24.682V8.3359C24.8925 8.25936 25.154 8.18921 25.4665 8.12543C25.779 8.05528 26.1298 8.0202 26.5188 8.0202ZM28.0948 10.6223C28.0948 10.1823 28.1586 9.7996 28.2862 9.47433C28.4137 9.14269 28.5827 8.86844 28.7932 8.6516C29.0037 8.43475 29.246 8.27212 29.5203 8.1637C29.7945 8.05528 30.0751 8.00106 30.3621 8.00106C31.0318 8.00106 31.5452 8.21153 31.9024 8.63246C32.2595 9.04702 32.4381 9.68161 32.4381 10.5362C32.4381 10.5745 32.4381 10.6255 32.4381 10.6893C32.4381 10.7467 32.4349 10.8009 32.4285 10.8519H29.0228C29.0611 11.3685 29.2109 11.7608 29.4724 12.0286C29.7339 12.2965 30.1421 12.4304 30.697 12.4304C31.0095 12.4304 31.271 12.4049 31.4814 12.3539C31.6983 12.2965 31.8609 12.2423 31.9693 12.1913L32.0937 12.9375C31.9853 12.9949 31.7939 13.0555 31.5197 13.1192C31.2518 13.183 30.9457 13.2149 30.6013 13.2149C30.1676 13.2149 29.7913 13.1511 29.4724 13.0236C29.1599 12.8896 28.9016 12.7079 28.6975 12.4783C28.4934 12.2487 28.3404 11.9776 28.2383 11.6651C28.1427 11.3462 28.0948 10.9986 28.0948 10.6223ZM31.5101 10.1344C31.5165 9.73263 31.4145 9.40418 31.204 9.14906C30.9999 8.88758 30.7161 8.75683 30.3526 8.75683C30.1485 8.75683 29.9667 8.79829 29.8073 8.8812C29.6542 8.95773 29.5235 9.05978 29.415 9.18733C29.3066 9.31489 29.2205 9.46158 29.1567 9.6274C29.0993 9.79322 29.0611 9.96223 29.0419 10.1344H31.5101ZM36.9305 9.17776C36.8221 9.08848 36.6659 9.00238 36.4618 8.91946C36.2577 8.83655 36.0345 8.7951 35.7921 8.7951C35.537 8.7951 35.317 8.84293 35.132 8.9386C34.9534 9.02789 34.8067 9.15544 34.6919 9.32126C34.5771 9.48071 34.4942 9.67204 34.4432 9.89526C34.3922 10.1185 34.3667 10.3577 34.3667 10.6128C34.3667 11.1931 34.5102 11.6428 34.7972 11.9617C35.0842 12.2742 35.4668 12.4304 35.9452 12.4304C36.1875 12.4304 36.3884 12.4209 36.5479 12.4017C36.7137 12.3762 36.8413 12.3507 36.9305 12.3252V9.17776ZM36.9305 5.82943L37.8202 5.67636V12.9566C37.6162 13.014 37.3547 13.0714 37.0358 13.1288C36.7169 13.1862 36.3502 13.2149 35.9356 13.2149C35.5529 13.2149 35.2085 13.1543 34.9024 13.0331C34.5963 12.912 34.3348 12.7398 34.1179 12.5165C33.9011 12.2933 33.7321 12.0223 33.6109 11.7034C33.4961 11.3781 33.4387 11.0146 33.4387 10.6128C33.4387 10.2301 33.4865 9.87932 33.5822 9.56043C33.6843 9.24154 33.8309 8.9673 34.0223 8.7377C34.2136 8.5081 34.4464 8.32952 34.7206 8.20196C35.0013 8.07441 35.3202 8.01063 35.6773 8.01063C35.9643 8.01063 36.2162 8.0489 36.4331 8.12543C36.6563 8.20196 36.8221 8.27531 36.9305 8.34546V5.82943ZM42.4535 8.34546C42.5619 8.27531 42.7246 8.20196 42.9414 8.12543C43.1646 8.0489 43.4197 8.01063 43.7067 8.01063C44.0639 8.01063 44.3796 8.07441 44.6538 8.20196C44.9345 8.32952 45.1704 8.5081 45.3618 8.7377C45.5531 8.9673 45.6966 9.24154 45.7923 9.56043C45.8943 9.87932 45.9453 10.2301 45.9453 10.6128C45.9453 11.0146 45.8847 11.3781 45.7636 11.7034C45.6488 12.0223 45.4829 12.2933 45.2661 12.5165C45.0493 12.7398 44.7878 12.912 44.4816 13.0331C44.1755 13.1543 43.8311 13.2149 43.4484 13.2149C43.0339 13.2149 42.6672 13.1862 42.3483 13.1288C42.0294 13.0714 41.7679 13.014 41.5638 12.9566V5.82943L42.4535 5.67636V8.34546ZM42.4535 12.3252C42.5428 12.3507 42.6672 12.3762 42.8266 12.4017C42.9924 12.4209 43.1965 12.4304 43.4389 12.4304C43.9172 12.4304 44.2999 12.2742 44.5869 11.9617C44.8739 11.6428 45.0174 11.1931 45.0174 10.6128C45.0174 10.3577 44.9919 10.1185 44.9408 9.89526C44.8898 9.67204 44.8069 9.48071 44.6921 9.32126C44.5773 9.15544 44.4274 9.02789 44.2425 8.9386C44.0639 8.84293 43.847 8.7951 43.5919 8.7951C43.3496 8.7951 43.1264 8.83655 42.9223 8.91946C42.7182 9.00238 42.5619 9.08848 42.4535 9.17776V12.3252ZM46.4923 14.0281C46.5624 14.06 46.6517 14.0887 46.7601 14.1142C46.8749 14.1461 46.9866 14.162 47.095 14.162C47.4458 14.162 47.72 14.0823 47.9177 13.9228C48.1154 13.7698 48.294 13.5178 48.4534 13.1671C48.0516 12.4017 47.6754 11.5918 47.3246 10.7371C46.9802 9.87613 46.6932 9.00556 46.4636 8.12543H47.4202C47.4904 8.41243 47.5733 8.72175 47.669 9.0534C47.771 9.38504 47.8826 9.72625 48.0038 10.077C48.125 10.4278 48.2557 10.7786 48.396 11.1294C48.5364 11.4801 48.683 11.8182 48.8361 12.1434C49.0785 11.4738 49.2889 10.8105 49.4675 10.1536C49.6461 9.49665 49.8151 8.82061 49.9745 8.12543H50.8929C50.6633 9.06296 50.4082 9.96542 50.1276 10.8328C49.847 11.6938 49.544 12.5006 49.2188 13.2532C49.0912 13.5402 48.9573 13.7857 48.817 13.9898C48.683 14.2003 48.5332 14.3725 48.3673 14.5064C48.2015 14.6403 48.0134 14.7392 47.8029 14.803C47.5988 14.8667 47.366 14.8986 47.1045 14.8986C47.0344 14.8986 46.961 14.8923 46.8845 14.8795C46.808 14.8731 46.7314 14.8604 46.6549 14.8412C46.5848 14.8285 46.5178 14.8125 46.454 14.7934C46.3966 14.7743 46.3552 14.7583 46.3296 14.7456L46.4923 14.0281Z" fill="#646464"/>
<path d="M77.2387 6.71639C77.2387 6.87123 77.1927 7.0226 77.1067 7.15132C77.0206 7.28005 76.8983 7.38035 76.7552 7.43953C76.6121 7.49871 76.4547 7.51411 76.3028 7.48378C76.151 7.45345 76.0116 7.37875 75.9022 7.26914C75.7928 7.15953 75.7184 7.01994 75.6884 6.86803C75.6584 6.71611 75.6741 6.55872 75.7336 6.41575C75.7931 6.27279 75.8937 6.15069 76.0226 6.06491C76.1515 5.97912 76.303 5.93351 76.4578 5.93384C76.5605 5.93384 76.6622 5.95409 76.757 5.99344C76.8519 6.03279 76.938 6.09046 77.0106 6.16314C77.0831 6.23583 77.1406 6.32211 77.1797 6.41705C77.2189 6.51198 77.2389 6.6137 77.2387 6.71639Z" fill="#8B28F5"/>
<path d="M77.5041 8.11496H75.8466C75.8466 8.11496 75.8466 8.09817 75.8466 8.08809C75.834 7.71954 75.6786 7.37031 75.4134 7.11407C75.1482 6.85783 74.7939 6.7146 74.4251 6.7146C74.0563 6.7146 73.702 6.85783 73.4368 7.11407C73.1716 7.37031 73.0163 7.71954 73.0036 8.08809C73.0036 8.09985 73.0036 8.10992 73.0036 8.12168H71.2571C70.9373 8.67198 70.7684 9.29693 70.7673 9.93341C70.7663 10.5699 70.9333 11.1954 71.2513 11.7467C71.5694 12.298 72.0272 12.7557 72.5787 13.0734C73.1302 13.3912 73.7558 13.5578 74.3923 13.5564C75.0288 13.555 75.6536 13.3857 76.2038 13.0656C76.7539 12.7455 77.2098 12.2859 77.5255 11.7332C77.8412 11.1805 78.0054 10.5543 78.0017 9.91785C77.9979 9.28138 77.8263 8.65716 77.5041 8.10824" fill="#8B28F5"/>
<path d="M76.4574 5.2662C76.4574 5.38543 76.4221 5.50199 76.3558 5.60113C76.2896 5.70027 76.1954 5.77754 76.0853 5.82317C75.9751 5.8688 75.8539 5.88074 75.737 5.85748C75.62 5.83422 75.5126 5.7768 75.4283 5.69249C75.344 5.60817 75.2866 5.50075 75.2633 5.38381C75.24 5.26686 75.252 5.14565 75.2976 5.03549C75.3432 4.92533 75.4205 4.83117 75.5196 4.76493C75.6188 4.69869 75.7353 4.66333 75.8546 4.66333C76.0145 4.66333 76.1678 4.72685 76.2809 4.83991C76.3939 4.95296 76.4574 5.10631 76.4574 5.2662Z" fill="#8B28F5"/>
<path d="M81.0469 4.14953L81.5507 3.08486L79.9621 2.33421V2.34429L79.9318 2.33085L77.6312 7.2008C78.2709 7.95985 78.6308 8.91541 78.6508 9.90787C78.6707 10.9003 78.3495 11.8696 77.7408 12.6537C77.1321 13.4379 76.2728 13.9894 75.3064 14.2162C74.34 14.4431 73.325 14.3314 72.4311 13.8999C71.5371 13.4685 70.8182 12.7433 70.3945 11.8456C69.9709 10.9479 69.868 9.932 70.1033 8.96761C70.3385 8.00321 70.8975 7.14873 71.6869 6.54689C72.4763 5.94505 73.4483 5.6323 74.4406 5.66089L76.6236 0.732171L76.5783 0.722095V0.712019L74.9779 0L74.501 1.07642L74.983 1.29137L73.5287 4.57103C72.3625 4.73821 71.281 5.27615 70.4441 6.10533C69.6072 6.93451 69.0592 8.01094 68.8812 9.17554C68.7031 10.3401 68.9045 11.5311 69.4555 12.5725C70.0065 13.6138 70.8779 14.4503 71.9409 14.9582C73.0039 15.4662 74.2021 15.6187 75.3584 15.3932C76.5148 15.1677 77.5679 14.5762 78.3622 13.706C79.1564 12.8359 79.6497 11.7333 79.7691 10.5613C79.8884 9.3892 79.6276 8.20982 79.025 7.19744L80.57 3.9245L81.0469 4.14953Z" fill="#5B5B5B"/>
<path d="M100.247 5.50537V13.5173H103.07V14.8792H98.7981V5.50537H100.247Z" fill="#5B5B5B"/>
<path d="M64.2558 15.0497C66.1031 15.0497 67.2366 14.163 67.9805 13.0681L66.7865 12.4351C66.5146 12.8579 66.1397 13.2049 65.6971 13.4433C65.2545 13.6818 64.7586 13.8041 64.2558 13.7986C62.3599 13.7986 60.8973 12.2873 60.8973 10.1999C60.8973 8.11256 62.3599 6.60288 64.2558 6.60288C64.7584 6.59741 65.2541 6.71947 65.6967 6.95765C66.1393 7.19582 66.5142 7.54233 66.7865 7.96478L67.9805 7.33337C67.25 6.23679 66.098 5.35181 64.2558 5.35181C61.5858 5.35181 59.4497 7.31826 59.4497 10.1999C59.4497 13.0816 61.5858 15.0497 64.2558 15.0497Z" fill="#5B5B5B"/>
<path d="M99.3523 17.238H98.7981V20.0844H99.3523V17.238Z" fill="#5B5B5B"/>
<path d="M100.003 20.0844V17.238H100.386L102.119 19.1373V17.238H102.674V20.0844H102.29L100.557 18.1818V20.0844H100.003Z" fill="#5B5B5B"/>
<path d="M106.223 18.6624C106.223 19.5289 105.6 20.1469 104.712 20.1469C103.823 20.1469 103.2 19.5289 103.2 18.6624C103.2 17.7959 103.823 17.1729 104.712 17.1729C105.6 17.1729 106.223 17.7959 106.223 18.6624ZM105.652 18.6624C105.646 18.4763 105.584 18.2963 105.476 18.1447C105.368 17.9932 105.218 17.8768 105.044 17.8101C104.87 17.7434 104.68 17.7294 104.499 17.7697C104.317 17.81 104.151 17.9029 104.022 18.0368C103.892 18.1708 103.805 18.3398 103.771 18.5229C103.737 18.7059 103.758 18.895 103.83 19.0664C103.903 19.2378 104.025 19.3841 104.18 19.4869C104.335 19.5897 104.517 19.6447 104.703 19.6448C104.832 19.6475 104.959 19.6237 105.078 19.5749C105.196 19.526 105.303 19.4532 105.393 19.361C105.482 19.2687 105.551 19.159 105.595 19.0388C105.64 18.9186 105.659 18.7904 105.652 18.6624Z" fill="#5B5B5B"/>
<path d="M106.935 17.238L107.695 19.1507L108.454 17.238H109.061L107.857 20.0844H107.524L106.33 17.238H106.935Z" fill="#5B5B5B"/>
<path d="M110.815 19.4793H109.659L109.408 20.0755H108.82L110.044 17.2207H110.479L111.67 20.0755H111.073L110.815 19.4793ZM110.647 19.0259L110.242 18.0016L109.836 19.0259H110.647Z" fill="#5B5B5B"/>
<path d="M113.973 19.9849C113.756 20.0992 113.514 20.157 113.269 20.1528C113.078 20.1612 112.887 20.1301 112.708 20.0617C112.528 19.9932 112.365 19.8888 112.228 19.7548C112.078 19.6169 111.96 19.4483 111.881 19.2605C111.802 19.0727 111.765 18.8702 111.771 18.6666C111.766 18.4594 111.803 18.2534 111.882 18.0616C111.961 17.8699 112.079 17.6967 112.228 17.5532C112.514 17.2946 112.89 17.1593 113.274 17.1771C113.518 17.1724 113.758 17.2303 113.973 17.345V17.9949C113.888 17.8955 113.783 17.8154 113.664 17.7601C113.546 17.7048 113.417 17.6755 113.286 17.6742C113.025 17.6771 112.776 17.7835 112.594 17.9701C112.411 18.1567 112.31 18.4081 112.313 18.6691C112.316 18.9301 112.422 19.1793 112.609 19.3618C112.796 19.5443 113.047 19.6452 113.308 19.6423C113.436 19.6436 113.563 19.6162 113.679 19.5622C113.795 19.5081 113.898 19.4288 113.98 19.3299L113.973 19.9849ZM113.521 20.4719L113.001 21.1301L112.719 20.9756L113.112 20.2838L113.521 20.4719Z" fill="#5B5B5B"/>
<path d="M116.171 19.4806H115.024L114.772 20.0767H114.169L115.395 17.2219H115.83L117.021 20.0767H116.423L116.171 19.4806ZM116.414 16.5737C116.367 16.6691 116.302 16.7545 116.223 16.8256C116.143 16.9015 116.037 16.9441 115.927 16.9448C115.827 16.9388 115.73 16.9144 115.639 16.8726L115.489 16.8122C115.422 16.78 115.35 16.7585 115.276 16.7484C115.221 16.7501 115.168 16.773 115.13 16.8122C115.102 16.8426 115.078 16.8772 115.061 16.9146L114.775 16.7097C114.821 16.626 114.877 16.5486 114.943 16.4797C114.985 16.4353 115.035 16.3999 115.091 16.3756C115.147 16.3513 115.207 16.3388 115.267 16.3386C115.368 16.3447 115.466 16.3691 115.558 16.4108L115.726 16.4797C115.79 16.5107 115.86 16.5295 115.931 16.5351C115.957 16.5361 115.983 16.5316 116.007 16.5221C116.031 16.5126 116.053 16.4981 116.072 16.4797C116.101 16.4467 116.124 16.4093 116.141 16.3689L116.414 16.5737ZM116.01 19.0272L115.603 18.0028L115.199 19.0272H116.01Z" fill="#5B5B5B"/>
<path d="M120.127 18.6624C120.127 19.5289 119.504 20.1469 118.607 20.1469C117.711 20.1469 117.096 19.5289 117.096 18.6624C117.096 17.7959 117.719 17.1729 118.607 17.1729C119.496 17.1729 120.127 17.7959 120.127 18.6624ZM119.556 18.6624C119.55 18.4763 119.488 18.2963 119.38 18.1447C119.272 17.9932 119.122 17.8768 118.948 17.8101C118.774 17.7434 118.584 17.7294 118.402 17.7697C118.221 17.81 118.055 17.9029 117.925 18.0368C117.796 18.1708 117.709 18.3398 117.675 18.5229C117.641 18.7059 117.662 18.895 117.734 19.0664C117.807 19.2378 117.929 19.3841 118.084 19.4869C118.239 19.5897 118.421 19.6447 118.607 19.6448C118.736 19.6475 118.863 19.6237 118.982 19.5749C119.1 19.526 119.207 19.4532 119.296 19.361C119.386 19.2687 119.455 19.159 119.499 19.0388C119.544 18.9186 119.563 18.7904 119.556 18.6624Z" fill="#5B5B5B"/>
<path d="M86.5655 11.1276C87.7611 10.9715 88.898 10.073 88.898 8.38535C88.898 6.65736 87.6755 5.50537 85.8904 5.50537H81.9424V14.8792H83.3479V6.74133H85.709C86.7166 6.74133 87.4505 7.40297 87.4505 8.38535C87.4505 9.36774 86.72 10.0311 85.709 10.0311H84.1355V11.267H85.1112L87.3447 14.8792H88.9753L86.5655 11.1276Z" fill="#5B5B5B"/>
<path d="M119.676 10.7271C119.383 10.3042 118.958 9.99046 118.468 9.8354C118.718 9.62746 118.919 9.36649 119.056 9.0714C119.193 8.77631 119.262 8.45449 119.259 8.12924C119.257 7.75165 119.174 7.37892 119.016 7.03603C118.869 6.69579 118.651 6.3911 118.376 6.14264C118.094 5.90357 117.759 5.73544 117.398 5.65229C116.894 5.54225 116.378 5.4932 115.862 5.50619H114.419V14.88H116.616C117.166 14.8946 117.716 14.8381 118.252 14.7121C118.657 14.5862 119.026 14.3638 119.326 14.0639C119.767 13.6392 120.044 13.0724 120.108 12.4634C120.172 11.8545 120.019 11.2425 119.676 10.7355M118.208 13.1738C117.901 13.4257 117.42 13.55 116.765 13.55H115.874V6.80428H116.377C116.867 6.80428 117.24 6.92016 117.498 7.1519C117.632 7.28103 117.736 7.43836 117.803 7.61257C117.869 7.78678 117.896 7.97355 117.882 8.15947C117.882 8.61288 117.756 8.95713 117.503 9.19223C117.264 9.41222 116.891 9.52809 116.388 9.52809V10.7137H116.601C117.384 10.7137 117.926 10.8491 118.225 11.1201C118.373 11.2451 118.492 11.4015 118.573 11.5781C118.654 11.7547 118.694 11.9469 118.692 12.1411C118.695 12.3386 118.653 12.5343 118.569 12.7131C118.485 12.8919 118.361 13.0489 118.206 13.1722" fill="#5B5B5B"/>
<path d="M96.8298 9.48267H92.6987V10.7186H96.8298V9.48267Z" fill="#5B5B5B"/>
<path d="M96.9255 5.50537H90.6282V14.8792H96.9255V13.6432H92.0337V11.1914V10.7196V9.48193V8.73968V6.74133H96.9255V5.50537Z" fill="#5B5B5B"/>
<path d="M109.004 5.50537H108.244L103.879 14.8792H105.439L106.405 12.775L107.118 11.1847H107.113L108.605 7.92019L110.03 11.1847H107.962L107.347 12.5466H110.62L111.627 14.8792H113.214L109.004 5.50537Z" fill="#5B5B5B"/>
</svg>
